<svg width="16" height="16" viewBox="0 0 16 16" fill="none" xmlns="http://www.w3.org/2000/svg">
<path fill-rule="evenodd" clip-rule="evenodd" d="M2.27041 10.9176C1.07121 12.0968 2.08401 13.3064 0.490407 15.1008C-0.228793 15.9112 3.45121 15.664 5.27361 13.8712C6.04721 13.1112 5.82881 12.0032 4.99921 11.188C4.17121 10.372 3.04401 10.1576 2.27041 10.9176V10.9176ZM15.5592 0.697614C14.9432 0.0928144 8.13041 5.55281 6.10161 7.54641C5.09521 8.53601 4.75921 9.06641 4.45121 9.46321C4.31681 9.63521 4.49441 9.68881 4.57361 9.72961C4.97201 9.93201 5.25121 10.1216 5.61201 10.476C5.97201 10.8304 6.16481 11.1048 6.37121 11.496C6.41281 11.5752 6.46721 11.7488 6.64161 11.6176C7.04561 11.3144 7.58561 10.984 8.59201 9.99441C10.62 8.00001 16.1744 1.30161 15.5592 0.697614V0.697614Z" fill="white"/>
</svg>
