<svg width="16" height="16" viewBox="0 0 16 16" fill="none" xmlns="http://www.w3.org/2000/svg">
<path fill-rule="evenodd" clip-rule="evenodd" d="M5.07599 2.17114V11.5711C4.56399 11.4639 3.96879 11.5047 3.37839 11.7231C2.04959 12.2167 1.58079 13.4175 1.93279 14.4047C2.28479 15.3927 3.32479 15.7919 4.65279 15.2983C5.78079 14.8799 6.51999 13.9503 6.50159 13.0751C6.50159 13.0751 6.50159 8.09034 6.50159 5.31034L12.1256 4.02154V9.98634C11.6128 9.87994 11.0176 9.91994 10.4272 10.1391C9.09919 10.6327 8.63039 11.8335 8.98239 12.8207C9.33359 13.8087 10.3736 14.2079 11.7016 13.7151C12.8304 13.2959 13.5688 12.3663 13.5512 11.4919V0.350342L5.07599 2.17114V2.17114Z" fill="white"/>
</svg>
